<?xml version="1.0" encoding="utf-8"?>
<!-- Generator: Adobe Illustrator 25.0.1, SVG Export Plug-In . SVG Version: 6.00 Build 0)  -->
<svg version="1.1" id="Layer_1" xmlns="http://www.w3.org/2000/svg" xmlns:xlink="http://www.w3.org/1999/xlink" x="0px" y="0px"
	 viewBox="0 0 595.3 841.9" enable-background="new 0 0 595.3 841.9" xml:space="preserve">
<linearGradient id="BGR_1_" gradientUnits="userSpaceOnUse" x1="297.7296" y1="-4.255319e-02" x2="297.7296" y2="841.8473">
	<stop  offset="0" style="stop-color:#262262"/>
	<stop  offset="1" style="stop-color:#21409A"/>
</linearGradient>
<rect id="BGR" x="0.1" y="0" fill="url(#BGR_1_)" width="595.3" height="841.9"/>
<g id="Rocket">
	<path id="smoke" fill-rule="evenodd" clip-rule="evenodd" fill="#BBCCE9" d="M0,841.9c0,0,2.6-62,29.2-90.1
		c16.1-17,49.1-22.5,64.8-24.1c4.6-0.5,8-4.5,7.8-9.1c-0.3-6.5,0.4-15.6,4.9-22.4c8.4-12.8,18.9-12.8,18.9-12.8L148,562.9l61.1-1.9
		l17.2,95.8c0,0,26.5-12.6,57.5-1.8c31.2,10.9,35.6,43.2,35.6,43.2s29.6-20.3,64.1-8.2c35,12.3,41.9,40.9,41.9,40.9s21.6-13,46.8-1
		c26.3,12.6,29.4,37.7,29.4,37.7c0,0,38.9-6,66.6,14c31.1,22.5,27,60.2,27,60.2H0z"/>
	<path id="Flame" fill-rule="evenodd" clip-rule="evenodd" fill="#F7D035" d="M163.9,575c0,0-21.1,11-19.2,46.2
		c2.5,46.1,32.5,93.9,32.5,93.9s34-60.3,32.2-95.9c-1.4-27.3-18.5-45.5-18.5-45.5L163.9,575z"/>
	<path id="Flame2" fill-rule="evenodd" clip-rule="evenodd" fill="#FDF4CF" d="M168.8,576.1c0,0-11.6,6.3-10.6,26.6
		c1.4,26.6,17.9,54.2,17.9,54.2s18.7-34.8,17.7-55.3c-0.8-15.8-10.2-26.2-10.2-26.2L168.8,576.1z"/>
	<path fill-rule="evenodd" clip-rule="evenodd" fill="#C32628" d="M114.3,474.2l20.6,90.5L101,633.4c0,0-15.8-81.6-17.9-92.2
		C80.1,526.5,114.3,474.2,114.3,474.2z"/>
	<path fill-rule="evenodd" clip-rule="evenodd" fill="#C32628" d="M268.9,541.2c-2.1,10.6-17.9,92.2-17.9,92.2L217,564.7l20.6-90.5
		C237.6,474.2,271.8,526.5,268.9,541.2z"/>
	<path fill-rule="evenodd" clip-rule="evenodd" fill="#87ADCC" d="M173.7,241.8c0,0-62.4,49.3-65.5,142.5
		c-3.6,107,24.7,178.3,24.7,178.3s19.3,13,40.8,13s42.3-11.8,42.3-11.8s32.1-75.4,24.7-179.4C233.1,280.5,173.7,241.8,173.7,241.8z"
		/>
	<path fill-rule="evenodd" clip-rule="evenodd" fill="#C32628" d="M128.5,301.8c19.3-39.5,45.2-60,45.2-60s26.3,17.1,46.1,59.1
		c-13.1,10-29,15.9-46.2,15.9C156.9,316.8,141.4,311.3,128.5,301.8z"/>
	<path opacity="0.28" fill-rule="evenodd" clip-rule="evenodd" fill="#747678" d="M215.9,563.9c0,0-10.4,5.9-24,9.3
		c6.6-40.3,10.1-81.8,10.1-124.2c0-72.1-10-141.6-28.6-207c0.2-0.1,0.3-0.2,0.3-0.2s59.5,38.7,66.9,142.6
		C248,488.4,215.9,563.9,215.9,563.9z"/>
	<path fill-rule="evenodd" clip-rule="evenodd" fill="#606161" d="M223.7,544.8c-4.1,12.1-5.9,20.8-5.9,20.8s-15.8,11.7-41.5,11.7
		c-25.7,0-42.4-14.7-42.4-14.7s-1.8-4.8-6.2-17.8l38.3,5.8c7.9,1.8,16.4,1.2,24.5,0L223.7,544.8z"/>
	
		<ellipse fill-rule="evenodd" clip-rule="evenodd" fill="#2A78BE" stroke="#C32628" stroke-width="6" stroke-miterlimit="10" cx="176.4" cy="383.1" rx="27.2" ry="29.6"/>
	<path fill-rule="evenodd" clip-rule="evenodd" fill="#C32729" d="M175.9,473.2c-6.1,0-10.9,41.2-11.4,57.8
		c-0.8,28,11.4,107.4,11.4,107.4s13.1-76.6,11.7-107.6C186.9,518.5,181.6,473.2,175.9,473.2z"/>
</g>
<g id="Stars">
	<path fill="#DCE9F7" d="M99.9,233.2c-7.6,0.9-8.3,1.6-9.2,9.7c-0.9-8.1-1.6-8.8-9.2-9.7c7.6-0.9,8.3-1.6,9.2-9.7
		C91.6,231.5,92.3,232.3,99.9,233.2z"/>
	<path fill="#DCE9F7" d="M63,58.4c-5.6,0.7-6.1,1.2-6.7,7.1c-0.6-5.9-1.1-6.4-6.7-7.1c5.6-0.7,6.1-1.2,6.7-7.1
		C56.9,57.2,57.4,57.7,63,58.4z"/>
	<path fill="#DCE9F7" d="M216.2,134.8c-5.6,0.7-6.1,1.2-6.7,7.1c-0.6-5.9-1.1-6.4-6.7-7.1c5.6-0.7,6.1-1.2,6.7-7.1
		C210.1,133.6,210.6,134.1,216.2,134.8z"/>
	<path fill="#DCE9F7" d="M185.2,51.3c-7.6,0.9-8.3,1.6-9.2,9.7c-0.9-8.1-1.6-8.8-9.2-9.7c7.6-0.9,8.3-1.6,9.2-9.7
		C176.9,49.7,177.6,50.4,185.2,51.3z"/>
	<path fill="#DCE9F7" d="M320.4,74.9c-6.1,0.7-6.6,1.3-7.3,7.7c-0.7-6.4-1.2-7-7.3-7.7c6.1-0.7,6.6-1.3,7.3-7.7
		C313.7,73.6,314.3,74.2,320.4,74.9z"/>
	<path fill="#DCE9F7" d="M411.5,148.8c-5.5,0.7-6,1.2-6.6,6.9c-0.6-5.8-1.1-6.3-6.6-6.9c5.5-0.7,6-1.2,6.6-6.9
		C405.5,147.6,406,148.2,411.5,148.8z"/>
	<path fill="#DCE9F7" d="M489.7,86.6c-7.6,0.9-8.3,1.6-9.2,9.7c-0.9-8.1-1.6-8.8-9.2-9.7c7.6-0.9,8.3-1.6,9.2-9.7
		C481.4,85,482.1,85.7,489.7,86.6z"/>
	<path fill="#DCE9F7" d="M536.8,39.2c-5.8,0.7-6.3,1.2-7,7.3c-0.7-6.1-1.2-6.7-7-7.3c5.8-0.7,6.3-1.2,7-7.3
		C530.5,38,531,38.6,536.8,39.2z"/>
	<path fill="#DCE9F7" d="M555.1,220.6c-5.4,0.6-5.8,1.2-6.5,6.8c-0.6-5.7-1.1-6.2-6.5-6.8c5.4-0.6,5.8-1.2,6.5-6.8
		C549.3,219.4,549.8,220,555.1,220.6z"/>
	<path fill="#DCE9F7" d="M338.9,321.7c-3.9,0.5-4.2,0.8-4.7,4.9c-0.4-4.1-0.8-4.5-4.7-4.9c3.9-0.5,4.2-0.8,4.7-4.9
		C334.6,320.9,335,321.3,338.9,321.7z"/>
	<path fill="#DCE9F7" d="M473.4,412.7c-3.9,0.5-4.2,0.8-4.7,4.9c-0.4-4.1-0.8-4.5-4.7-4.9c3.9-0.5,4.2-0.8,4.7-4.9
		C469.2,411.9,469.6,412.2,473.4,412.7z"/>
</g>
</svg>
